<mxfile host="app.diagrams.net" agent="Mozilla/5.0 (X11; Ubuntu; Linux x86_64; rv:132.0) Gecko/20100101 Firefox/132.0" version="25.0.1">
  <diagram name="Pagina-1" id="q-vKuexcqwlGs1cbS1uG">
    <mxGraphModel grid="1" page="1" gridSize="10" guides="1" tooltips="1" connect="1" arrows="1" fold="1" pageScale="1" pageWidth="827" pageHeight="1169" math="0" shadow="0">
      <root>
        <mxCell id="0" />
        <mxCell id="1" parent="0" />
        <mxCell id="nroqLIsP4G2n3ZOkZt5B-1" value="Customer" style="swimlane;fontStyle=0;childLayout=stackLayout;horizontal=1;startSize=26;fillColor=none;horizontalStack=0;resizeParent=1;resizeParentMax=0;resizeLast=0;collapsible=1;marginBottom=0;whiteSpace=wrap;html=1;" vertex="1" parent="1">
          <mxGeometry x="40" y="150" width="260" height="182" as="geometry" />
        </mxCell>
        <mxCell id="nroqLIsP4G2n3ZOkZt5B-2" value="&lt;span class=&quot;n-body-medium line-clamp-3 basis-1/3 font-black&quot;&gt;customer_id&lt;/span&gt;: Integer" style="text;strokeColor=none;fillColor=none;align=left;verticalAlign=top;spacingLeft=4;spacingRight=4;overflow=hidden;rotatable=0;points=[[0,0.5],[1,0.5]];portConstraint=eastwest;whiteSpace=wrap;html=1;" vertex="1" parent="nroqLIsP4G2n3ZOkZt5B-1">
          <mxGeometry y="26" width="260" height="26" as="geometry" />
        </mxCell>
        <mxCell id="nroqLIsP4G2n3ZOkZt5B-3" value="&lt;span class=&quot;n-body-medium line-clamp-3 basis-1/3 font-black&quot;&gt;x_customer_id&lt;/span&gt;: Float" style="text;strokeColor=none;fillColor=none;align=left;verticalAlign=top;spacingLeft=4;spacingRight=4;overflow=hidden;rotatable=0;points=[[0,0.5],[1,0.5]];portConstraint=eastwest;whiteSpace=wrap;html=1;" vertex="1" parent="nroqLIsP4G2n3ZOkZt5B-1">
          <mxGeometry y="52" width="260" height="26" as="geometry" />
        </mxCell>
        <mxCell id="23xXjeNVzSgfdWQKq-GB-1" value="&lt;span class=&quot;n-body-medium line-clamp-3 basis-1/3 font-black&quot;&gt;y_customer_id&lt;/span&gt;: Float" style="text;strokeColor=none;fillColor=none;align=left;verticalAlign=top;spacingLeft=4;spacingRight=4;overflow=hidden;rotatable=0;points=[[0,0.5],[1,0.5]];portConstraint=eastwest;whiteSpace=wrap;html=1;" vertex="1" parent="nroqLIsP4G2n3ZOkZt5B-1">
          <mxGeometry y="78" width="260" height="26" as="geometry" />
        </mxCell>
        <mxCell id="nroqLIsP4G2n3ZOkZt5B-4" value="&lt;span class=&quot;n-body-medium line-clamp-3 basis-1/3 font-black&quot;&gt;mean_amount&lt;/span&gt;&lt;span dir=&quot;ltr&quot; class=&quot;text__translation&quot;&gt;: Float&lt;br&gt;&lt;/span&gt;" style="text;strokeColor=none;fillColor=none;align=left;verticalAlign=top;spacingLeft=4;spacingRight=4;overflow=hidden;rotatable=0;points=[[0,0.5],[1,0.5]];portConstraint=eastwest;whiteSpace=wrap;html=1;" vertex="1" parent="nroqLIsP4G2n3ZOkZt5B-1">
          <mxGeometry y="104" width="260" height="26" as="geometry" />
        </mxCell>
        <mxCell id="nroqLIsP4G2n3ZOkZt5B-6" value="&lt;span class=&quot;n-body-medium line-clamp-3 basis-1/3 font-black&quot;&gt;mean_nb_tx_per_day: Float&lt;br&gt;&lt;/span&gt;" style="text;strokeColor=none;fillColor=none;align=left;verticalAlign=top;spacingLeft=4;spacingRight=4;overflow=hidden;rotatable=0;points=[[0,0.5],[1,0.5]];portConstraint=eastwest;whiteSpace=wrap;html=1;" vertex="1" parent="nroqLIsP4G2n3ZOkZt5B-1">
          <mxGeometry y="130" width="260" height="26" as="geometry" />
        </mxCell>
        <mxCell id="nroqLIsP4G2n3ZOkZt5B-7" value="&lt;span class=&quot;n-body-medium line-clamp-3 basis-1/3 font-black&quot;&gt;std_amount: Float&lt;br&gt;&lt;/span&gt;" style="text;strokeColor=none;fillColor=none;align=left;verticalAlign=top;spacingLeft=4;spacingRight=4;overflow=hidden;rotatable=0;points=[[0,0.5],[1,0.5]];portConstraint=eastwest;whiteSpace=wrap;html=1;" vertex="1" parent="nroqLIsP4G2n3ZOkZt5B-1">
          <mxGeometry y="156" width="260" height="26" as="geometry" />
        </mxCell>
        <mxCell id="gTuj9j2So7aJlRHHhXkW-4" style="edgeStyle=orthogonalEdgeStyle;rounded=0;orthogonalLoop=1;jettySize=auto;html=1;entryX=0.113;entryY=1.003;entryDx=0;entryDy=0;entryPerimeter=0;endArrow=none;endFill=0;" edge="1" parent="nroqLIsP4G2n3ZOkZt5B-1" source="nroqLIsP4G2n3ZOkZt5B-1" target="nroqLIsP4G2n3ZOkZt5B-7">
          <mxGeometry relative="1" as="geometry">
            <mxPoint x="30" y="160" as="targetPoint" />
            <Array as="points">
              <mxPoint x="130" y="210" />
              <mxPoint x="29" y="210" />
            </Array>
          </mxGeometry>
        </mxCell>
        <mxCell id="gTuj9j2So7aJlRHHhXkW-5" value="Buying_friends" style="edgeLabel;html=1;align=center;verticalAlign=middle;resizable=0;points=[];" connectable="0" vertex="1" parent="gTuj9j2So7aJlRHHhXkW-4">
          <mxGeometry x="0.038" relative="1" as="geometry">
            <mxPoint as="offset" />
          </mxGeometry>
        </mxCell>
        <mxCell id="gTuj9j2So7aJlRHHhXkW-6" value="(0,*)" style="edgeLabel;html=1;align=center;verticalAlign=middle;resizable=0;points=[];" connectable="0" vertex="1" parent="gTuj9j2So7aJlRHHhXkW-4">
          <mxGeometry x="-0.8848" y="1" relative="1" as="geometry">
            <mxPoint y="4" as="offset" />
          </mxGeometry>
        </mxCell>
        <mxCell id="gTuj9j2So7aJlRHHhXkW-7" value="(0,*)" style="edgeLabel;html=1;align=center;verticalAlign=middle;resizable=0;points=[];" connectable="0" vertex="1" parent="gTuj9j2So7aJlRHHhXkW-4">
          <mxGeometry x="0.9054" relative="1" as="geometry">
            <mxPoint y="6" as="offset" />
          </mxGeometry>
        </mxCell>
        <mxCell id="nroqLIsP4G2n3ZOkZt5B-8" value="Terminal" style="swimlane;fontStyle=0;childLayout=stackLayout;horizontal=1;startSize=26;fillColor=none;horizontalStack=0;resizeParent=1;resizeParentMax=0;resizeLast=0;collapsible=1;marginBottom=0;whiteSpace=wrap;html=1;" vertex="1" parent="1">
          <mxGeometry x="530" y="130" width="160" height="104" as="geometry" />
        </mxCell>
        <mxCell id="nroqLIsP4G2n3ZOkZt5B-9" value="ID: Integer" style="text;strokeColor=none;fillColor=none;align=left;verticalAlign=top;spacingLeft=4;spacingRight=4;overflow=hidden;rotatable=0;points=[[0,0.5],[1,0.5]];portConstraint=eastwest;whiteSpace=wrap;html=1;" vertex="1" parent="nroqLIsP4G2n3ZOkZt5B-8">
          <mxGeometry y="26" width="160" height="26" as="geometry" />
        </mxCell>
        <mxCell id="23xXjeNVzSgfdWQKq-GB-3" value="&lt;span class=&quot;n-body-medium line-clamp-3 basis-1/3 font-black&quot;&gt;y_terminal_id&lt;/span&gt;: Float" style="text;strokeColor=none;fillColor=none;align=left;verticalAlign=top;spacingLeft=4;spacingRight=4;overflow=hidden;rotatable=0;points=[[0,0.5],[1,0.5]];portConstraint=eastwest;whiteSpace=wrap;html=1;" vertex="1" parent="nroqLIsP4G2n3ZOkZt5B-8">
          <mxGeometry y="52" width="160" height="26" as="geometry" />
        </mxCell>
        <mxCell id="23xXjeNVzSgfdWQKq-GB-2" value="&lt;span class=&quot;n-body-medium line-clamp-3 basis-1/3 font-black&quot;&gt;x_&lt;/span&gt;&lt;span class=&quot;n-body-medium line-clamp-3 basis-1/3 font-black&quot;&gt;terminal&lt;/span&gt;&lt;span class=&quot;n-body-medium line-clamp-3 basis-1/3 font-black&quot;&gt;_id&lt;/span&gt;: Float" style="text;strokeColor=none;fillColor=none;align=left;verticalAlign=top;spacingLeft=4;spacingRight=4;overflow=hidden;rotatable=0;points=[[0,0.5],[1,0.5]];portConstraint=eastwest;whiteSpace=wrap;html=1;" vertex="1" parent="nroqLIsP4G2n3ZOkZt5B-8">
          <mxGeometry y="78" width="160" height="26" as="geometry" />
        </mxCell>
        <mxCell id="nroqLIsP4G2n3ZOkZt5B-14" style="edgeStyle=orthogonalEdgeStyle;rounded=0;orthogonalLoop=1;jettySize=auto;html=1;entryX=0;entryY=0.154;entryDx=0;entryDy=0;entryPerimeter=0;endArrow=none;endFill=0;" edge="1" parent="1" source="nroqLIsP4G2n3ZOkZt5B-1" target="nroqLIsP4G2n3ZOkZt5B-9">
          <mxGeometry relative="1" as="geometry">
            <Array as="points">
              <mxPoint x="350" y="160" />
              <mxPoint x="350" y="160" />
            </Array>
          </mxGeometry>
        </mxCell>
        <mxCell id="nroqLIsP4G2n3ZOkZt5B-16" value="Available" style="edgeLabel;html=1;align=center;verticalAlign=middle;resizable=0;points=[];" connectable="0" vertex="1" parent="nroqLIsP4G2n3ZOkZt5B-14">
          <mxGeometry x="0.0692" relative="1" as="geometry">
            <mxPoint x="-7" as="offset" />
          </mxGeometry>
        </mxCell>
        <mxCell id="nroqLIsP4G2n3ZOkZt5B-17" value="(0,*)" style="edgeLabel;html=1;align=center;verticalAlign=middle;resizable=0;points=[];" connectable="0" vertex="1" parent="nroqLIsP4G2n3ZOkZt5B-14">
          <mxGeometry x="0.8434" y="-1" relative="1" as="geometry">
            <mxPoint x="-12" as="offset" />
          </mxGeometry>
        </mxCell>
        <mxCell id="nroqLIsP4G2n3ZOkZt5B-18" value="(0,*)" style="edgeLabel;html=1;align=center;verticalAlign=middle;resizable=0;points=[];" connectable="0" vertex="1" parent="nroqLIsP4G2n3ZOkZt5B-14">
          <mxGeometry x="-0.8308" y="-1" relative="1" as="geometry">
            <mxPoint as="offset" />
          </mxGeometry>
        </mxCell>
        <mxCell id="nroqLIsP4G2n3ZOkZt5B-34" style="edgeStyle=orthogonalEdgeStyle;rounded=0;orthogonalLoop=1;jettySize=auto;html=1;dashed=1;endArrow=none;endFill=0;" edge="1" parent="1" source="nroqLIsP4G2n3ZOkZt5B-19">
          <mxGeometry relative="1" as="geometry">
            <mxPoint x="400" y="200" as="targetPoint" />
            <Array as="points">
              <mxPoint x="400" y="210" />
              <mxPoint x="400" y="210" />
            </Array>
          </mxGeometry>
        </mxCell>
        <mxCell id="nroqLIsP4G2n3ZOkZt5B-19" value="Transaction" style="swimlane;fontStyle=0;childLayout=stackLayout;horizontal=1;startSize=26;fillColor=none;horizontalStack=0;resizeParent=1;resizeParentMax=0;resizeLast=0;collapsible=1;marginBottom=0;whiteSpace=wrap;html=1;" vertex="1" parent="1">
          <mxGeometry x="320" y="220" width="190" height="364" as="geometry" />
        </mxCell>
        <mxCell id="nroqLIsP4G2n3ZOkZt5B-20" value="transaction_id: Integer" style="text;strokeColor=none;fillColor=none;align=left;verticalAlign=top;spacingLeft=4;spacingRight=4;overflow=hidden;rotatable=0;points=[[0,0.5],[1,0.5]];portConstraint=eastwest;whiteSpace=wrap;html=1;" vertex="1" parent="nroqLIsP4G2n3ZOkZt5B-19">
          <mxGeometry y="26" width="190" height="26" as="geometry" />
        </mxCell>
        <mxCell id="nroqLIsP4G2n3ZOkZt5B-27" value="&lt;span class=&quot;n-body-medium line-clamp-3 basis-1/3 font-black&quot;&gt;tx_date_year:&lt;/span&gt; Integer" style="text;strokeColor=none;fillColor=none;align=left;verticalAlign=top;spacingLeft=4;spacingRight=4;overflow=hidden;rotatable=0;points=[[0,0.5],[1,0.5]];portConstraint=eastwest;whiteSpace=wrap;html=1;" vertex="1" parent="nroqLIsP4G2n3ZOkZt5B-19">
          <mxGeometry y="52" width="190" height="26" as="geometry" />
        </mxCell>
        <mxCell id="23xXjeNVzSgfdWQKq-GB-4" value="&lt;span class=&quot;n-body-medium line-clamp-3 basis-1/3 font-black&quot;&gt;tx_date_month:&lt;/span&gt; Integer" style="text;strokeColor=none;fillColor=none;align=left;verticalAlign=top;spacingLeft=4;spacingRight=4;overflow=hidden;rotatable=0;points=[[0,0.5],[1,0.5]];portConstraint=eastwest;whiteSpace=wrap;html=1;" vertex="1" parent="nroqLIsP4G2n3ZOkZt5B-19">
          <mxGeometry y="78" width="190" height="26" as="geometry" />
        </mxCell>
        <mxCell id="23xXjeNVzSgfdWQKq-GB-5" value="&lt;span class=&quot;n-body-medium line-clamp-3 basis-1/3 font-black&quot;&gt;tx_date_day:&lt;/span&gt; Integer" style="text;strokeColor=none;fillColor=none;align=left;verticalAlign=top;spacingLeft=4;spacingRight=4;overflow=hidden;rotatable=0;points=[[0,0.5],[1,0.5]];portConstraint=eastwest;whiteSpace=wrap;html=1;" vertex="1" parent="nroqLIsP4G2n3ZOkZt5B-19">
          <mxGeometry y="104" width="190" height="26" as="geometry" />
        </mxCell>
        <mxCell id="23xXjeNVzSgfdWQKq-GB-8" value="&lt;span class=&quot;n-body-medium line-clamp-3 basis-1/3 font-black&quot;&gt;tx_date_time&lt;/span&gt;&lt;span class=&quot;n-body-medium line-clamp-3 basis-1/3 font-black&quot;&gt;:&lt;/span&gt; LocalTime" style="text;strokeColor=none;fillColor=none;align=left;verticalAlign=top;spacingLeft=4;spacingRight=4;overflow=hidden;rotatable=0;points=[[0,0.5],[1,0.5]];portConstraint=eastwest;whiteSpace=wrap;html=1;" vertex="1" parent="nroqLIsP4G2n3ZOkZt5B-19">
          <mxGeometry y="130" width="190" height="26" as="geometry" />
        </mxCell>
        <mxCell id="nroqLIsP4G2n3ZOkZt5B-26" value="&lt;span class=&quot;n-body-medium line-clamp-3 basis-1/3 font-black&quot;&gt;tx_amount&lt;/span&gt;: Float" style="text;strokeColor=none;fillColor=none;align=left;verticalAlign=top;spacingLeft=4;spacingRight=4;overflow=hidden;rotatable=0;points=[[0,0.5],[1,0.5]];portConstraint=eastwest;whiteSpace=wrap;html=1;" vertex="1" parent="nroqLIsP4G2n3ZOkZt5B-19">
          <mxGeometry y="156" width="190" height="26" as="geometry" />
        </mxCell>
        <mxCell id="nroqLIsP4G2n3ZOkZt5B-28" value="&lt;span class=&quot;n-body-medium line-clamp-3 basis-1/3 font-black&quot;&gt;tx_fraud&lt;/span&gt;: Boolean" style="text;strokeColor=none;fillColor=none;align=left;verticalAlign=top;spacingLeft=4;spacingRight=4;overflow=hidden;rotatable=0;points=[[0,0.5],[1,0.5]];portConstraint=eastwest;whiteSpace=wrap;html=1;" vertex="1" parent="nroqLIsP4G2n3ZOkZt5B-19">
          <mxGeometry y="182" width="190" height="26" as="geometry" />
        </mxCell>
        <mxCell id="nroqLIsP4G2n3ZOkZt5B-29" value="&lt;span class=&quot;n-body-medium line-clamp-3 basis-1/3 font-black&quot;&gt;tx_fraud_scenario&lt;/span&gt;: Integer" style="text;strokeColor=none;fillColor=none;align=left;verticalAlign=top;spacingLeft=4;spacingRight=4;overflow=hidden;rotatable=0;points=[[0,0.5],[1,0.5]];portConstraint=eastwest;whiteSpace=wrap;html=1;" vertex="1" parent="nroqLIsP4G2n3ZOkZt5B-19">
          <mxGeometry y="208" width="190" height="26" as="geometry" />
        </mxCell>
        <mxCell id="23xXjeNVzSgfdWQKq-GB-6" value="&lt;span class=&quot;n-body-medium line-clamp-3 basis-1/3 font-black&quot;&gt;tx_time_days&lt;/span&gt;: Integer" style="text;strokeColor=none;fillColor=none;align=left;verticalAlign=top;spacingLeft=4;spacingRight=4;overflow=hidden;rotatable=0;points=[[0,0.5],[1,0.5]];portConstraint=eastwest;whiteSpace=wrap;html=1;" vertex="1" parent="nroqLIsP4G2n3ZOkZt5B-19">
          <mxGeometry y="234" width="190" height="26" as="geometry" />
        </mxCell>
        <mxCell id="23xXjeNVzSgfdWQKq-GB-7" value="&lt;span class=&quot;n-body-medium line-clamp-3 basis-1/3 font-black&quot;&gt;tx_time_seconds&lt;/span&gt;: Integer" style="text;strokeColor=none;fillColor=none;align=left;verticalAlign=top;spacingLeft=4;spacingRight=4;overflow=hidden;rotatable=0;points=[[0,0.5],[1,0.5]];portConstraint=eastwest;whiteSpace=wrap;html=1;" vertex="1" parent="nroqLIsP4G2n3ZOkZt5B-19">
          <mxGeometry y="260" width="190" height="26" as="geometry" />
        </mxCell>
        <mxCell id="gTuj9j2So7aJlRHHhXkW-8" value="&lt;span class=&quot;n-body-medium line-clamp-3 basis-1/3 font-black&quot;&gt;tx_day_period&lt;/span&gt;: String" style="text;strokeColor=none;fillColor=none;align=left;verticalAlign=top;spacingLeft=4;spacingRight=4;overflow=hidden;rotatable=0;points=[[0,0.5],[1,0.5]];portConstraint=eastwest;whiteSpace=wrap;html=1;" vertex="1" parent="nroqLIsP4G2n3ZOkZt5B-19">
          <mxGeometry y="286" width="190" height="26" as="geometry" />
        </mxCell>
        <mxCell id="gTuj9j2So7aJlRHHhXkW-10" value="&lt;span class=&quot;n-body-medium line-clamp-3 basis-1/3 font-black&quot;&gt;tx_products_type&lt;/span&gt;: String" style="text;strokeColor=none;fillColor=none;align=left;verticalAlign=top;spacingLeft=4;spacingRight=4;overflow=hidden;rotatable=0;points=[[0,0.5],[1,0.5]];portConstraint=eastwest;whiteSpace=wrap;html=1;" vertex="1" parent="nroqLIsP4G2n3ZOkZt5B-19">
          <mxGeometry y="312" width="190" height="26" as="geometry" />
        </mxCell>
        <mxCell id="gTuj9j2So7aJlRHHhXkW-11" value="&lt;span class=&quot;n-body-medium line-clamp-3 basis-1/3 font-black&quot;&gt;tx_security_feeling&lt;/span&gt;: Integer" style="text;strokeColor=none;fillColor=none;align=left;verticalAlign=top;spacingLeft=4;spacingRight=4;overflow=hidden;rotatable=0;points=[[0,0.5],[1,0.5]];portConstraint=eastwest;whiteSpace=wrap;html=1;" vertex="1" parent="nroqLIsP4G2n3ZOkZt5B-19">
          <mxGeometry y="338" width="190" height="26" as="geometry" />
        </mxCell>
        <mxCell id="nroqLIsP4G2n3ZOkZt5B-30" style="edgeStyle=orthogonalEdgeStyle;rounded=0;orthogonalLoop=1;jettySize=auto;html=1;entryX=0.002;entryY=0.471;entryDx=0;entryDy=0;endArrow=none;endFill=0;entryPerimeter=0;" edge="1" parent="1" source="nroqLIsP4G2n3ZOkZt5B-1" target="23xXjeNVzSgfdWQKq-GB-3">
          <mxGeometry relative="1" as="geometry">
            <Array as="points">
              <mxPoint x="415" y="194" />
            </Array>
            <mxPoint x="500" y="247" as="targetPoint" />
          </mxGeometry>
        </mxCell>
        <mxCell id="nroqLIsP4G2n3ZOkZt5B-31" value="Make_transaction" style="edgeLabel;html=1;align=center;verticalAlign=middle;resizable=0;points=[];" connectable="0" vertex="1" parent="nroqLIsP4G2n3ZOkZt5B-30">
          <mxGeometry x="0.002" relative="1" as="geometry">
            <mxPoint as="offset" />
          </mxGeometry>
        </mxCell>
        <mxCell id="nroqLIsP4G2n3ZOkZt5B-32" value="(0,*)" style="edgeLabel;html=1;align=center;verticalAlign=middle;resizable=0;points=[];" connectable="0" vertex="1" parent="nroqLIsP4G2n3ZOkZt5B-30">
          <mxGeometry x="0.8504" relative="1" as="geometry">
            <mxPoint x="-2" as="offset" />
          </mxGeometry>
        </mxCell>
        <mxCell id="nroqLIsP4G2n3ZOkZt5B-33" value="(0,*)" style="edgeLabel;html=1;align=center;verticalAlign=middle;resizable=0;points=[];" connectable="0" vertex="1" parent="nroqLIsP4G2n3ZOkZt5B-30">
          <mxGeometry x="-0.8112" y="1" relative="1" as="geometry">
            <mxPoint as="offset" />
          </mxGeometry>
        </mxCell>
      </root>
    </mxGraphModel>
  </diagram>
</mxfile>
